<mxfile host="app.diagrams.net" modified="2020-12-24T10:59:28.159Z" agent="5.0 (Windows NT 10.0; Win64; x64) AppleWebKit/537.36 (KHTML, like Gecko) Chrome/87.0.4280.107 Safari/537.36" etag="uwVSkECQYzsxedNPw8Ot" version="13.11.0" type="github">
  <diagram id="prtHgNgQTEPvFCAcTncT" name="Page-1">
    <mxGraphModel dx="1406" dy="930" grid="1" gridSize="10" guides="1" tooltips="1" connect="1" arrows="1" fold="1" page="1" pageScale="1" pageWidth="827" pageHeight="1169" math="0" shadow="0">
      <root>
        <mxCell id="0" />
        <mxCell id="1" parent="0" />
        <mxCell id="WyT1vQOV1RdkplNNr2WD-1" value="CASHIER" style="ellipse;whiteSpace=wrap;html=1;aspect=fixed;" vertex="1" parent="1">
          <mxGeometry x="-360" y="200" width="80" height="80" as="geometry" />
        </mxCell>
        <mxCell id="WyT1vQOV1RdkplNNr2WD-2" value="WAITER" style="ellipse;whiteSpace=wrap;html=1;aspect=fixed;" vertex="1" parent="1">
          <mxGeometry x="-200" y="200" width="80" height="80" as="geometry" />
        </mxCell>
        <mxCell id="WyT1vQOV1RdkplNNr2WD-3" value="MANAGER" style="ellipse;whiteSpace=wrap;html=1;aspect=fixed;" vertex="1" parent="1">
          <mxGeometry x="-360" y="360" width="80" height="80" as="geometry" />
        </mxCell>
        <mxCell id="WyT1vQOV1RdkplNNr2WD-4" value="COOK" style="ellipse;whiteSpace=wrap;html=1;aspect=fixed;" vertex="1" parent="1">
          <mxGeometry x="-520" y="280" width="80" height="80" as="geometry" />
        </mxCell>
        <mxCell id="WyT1vQOV1RdkplNNr2WD-5" value="" style="endArrow=classic;html=1;entryX=0;entryY=0.5;entryDx=0;entryDy=0;" edge="1" parent="1" target="WyT1vQOV1RdkplNNr2WD-2">
          <mxGeometry width="50" height="50" relative="1" as="geometry">
            <mxPoint x="-280" y="240" as="sourcePoint" />
            <mxPoint x="-230" y="190" as="targetPoint" />
          </mxGeometry>
        </mxCell>
        <mxCell id="WyT1vQOV1RdkplNNr2WD-6" value="" style="endArrow=classic;html=1;exitX=0.5;exitY=1;exitDx=0;exitDy=0;entryX=0.5;entryY=0;entryDx=0;entryDy=0;" edge="1" parent="1" source="WyT1vQOV1RdkplNNr2WD-1" target="WyT1vQOV1RdkplNNr2WD-3">
          <mxGeometry width="50" height="50" relative="1" as="geometry">
            <mxPoint x="-380" y="500" as="sourcePoint" />
            <mxPoint x="-330" y="450" as="targetPoint" />
          </mxGeometry>
        </mxCell>
        <mxCell id="WyT1vQOV1RdkplNNr2WD-7" value="" style="endArrow=classic;html=1;entryX=0.5;entryY=1;entryDx=0;entryDy=0;exitX=0;exitY=0.5;exitDx=0;exitDy=0;" edge="1" parent="1" source="WyT1vQOV1RdkplNNr2WD-3" target="WyT1vQOV1RdkplNNr2WD-4">
          <mxGeometry width="50" height="50" relative="1" as="geometry">
            <mxPoint x="-480" y="280" as="sourcePoint" />
            <mxPoint x="-430" y="230" as="targetPoint" />
            <Array as="points">
              <mxPoint x="-480" y="400" />
            </Array>
          </mxGeometry>
        </mxCell>
        <mxCell id="WyT1vQOV1RdkplNNr2WD-8" value="" style="endArrow=classic;html=1;entryX=0.5;entryY=0;entryDx=0;entryDy=0;exitX=0;exitY=0.5;exitDx=0;exitDy=0;" edge="1" parent="1" source="WyT1vQOV1RdkplNNr2WD-1" target="WyT1vQOV1RdkplNNr2WD-4">
          <mxGeometry width="50" height="50" relative="1" as="geometry">
            <mxPoint x="-430" y="200" as="sourcePoint" />
            <mxPoint x="-380" y="150" as="targetPoint" />
            <Array as="points">
              <mxPoint x="-480" y="240" />
            </Array>
          </mxGeometry>
        </mxCell>
      </root>
    </mxGraphModel>
  </diagram>
</mxfile>
